<svg xmlns="http://www.w3.org/2000/svg" viewBox="0 0 21.29 21.29"><defs><style>.cls-1{opacity:0.75;}</style></defs><g id="Layer_2" data-name="Layer 2"><g id="Layer_4" data-name="Layer 4"><g id="TvyOVy.tif" class="cls-1"><path d="M10.33,0h.74A11,11,0,0,1,21.29,10.33v.74A11,11,0,0,1,11,21.29h-.74A11,11,0,0,1,0,11v-.74A11,11,0,0,1,10.33,0Zm-5,14,1.61.4c.71.17.71.16.52.85,0,.44-.58,1.24.12,1.36.36,0,.92.39,1-.19.16-.35.18-1.71.73-1.38a.53.53,0,0,1,.27.43c.05.54-.73,1.55.16,1.67.36,0,.81.37.94-.32.09-.46.23-.91.35-1.35,1.5.14,3,.41,3.81-1.19a3.23,3.23,0,0,0,.38-1.76,5.19,5.19,0,0,0-.8-1.57,2.14,2.14,0,0,0-.07-3.83c-.36-.2-.92-.34-1-.64s.1-.85.25-1.26c.22-.59-.19-.59-.54-.7-1-.42-.79.93-1.1,1.66-.76-.13-.76-.13-.6-.76.06-.24.12-.48.19-.72s.05-.59-.38-.63A1.58,1.58,0,0,1,10.78,4c-1.12-.38-.29,2.07-1.46,1.65-.53-.11-1.31-.51-1.8-.25a3.34,3.34,0,0,0-.25,1.07c0,.09.4.21.62.27.59.17.73.38.59,1-.36,1.48-.73,3-1.1,4.43-.17.65-.24.67-.93.54-.19,0-.52,0-.59.12A8,8,0,0,0,5.33,14Z"/><path d="M10,11c.77.31,1.51.55,2.2.88A.94.94,0,0,1,12.71,13a.86.86,0,0,1-.91.74,18.3,18.3,0,0,1-2.09-.23c-.11,0-.27-.31-.25-.44C9.59,12.39,9.78,11.77,10,11Z"/><path d="M10.78,7.49c.72.29,1.33.5,1.9.79A.83.83,0,0,1,13,9.34a.86.86,0,0,1-.83.63h-.05l-1.75-.29Z"/></g></g></g></svg>