<svg xmlns="http://www.w3.org/2000/svg" viewBox="0 0 21.86 19.03"><defs><style>.cls-1{fill:#e6e8e6;}</style></defs><g id="Layer_2" data-name="Layer 2"><g id="Layer_5" data-name="Layer 5"><g id="money_1"><path class="cls-1" d="M16.55,7.11l-.34,0V6.69a2.45,2.45,0,0,0-2.45-2.45H12V2.44A2.44,2.44,0,0,0,9.52,0H2.44A2.44,2.44,0,0,0,0,2.44V3.85A2.44,2.44,0,0,0,2.44,6.29H4.25v2.2h-.4a2.43,2.43,0,0,0-2.43,2.44v1.41a2.45,2.45,0,0,0,1.24,2.13l.23.12,0,.26c0,.11,0,.21,0,.33v1.41A2.44,2.44,0,0,0,5.27,19h7.07a2.34,2.34,0,0,0,1.21-.31l.16-.1.17.07a5.84,5.84,0,0,0,2,.34,6,6,0,0,0,.67-11.92Zm-2.39-.82v1l-.27.09a5.68,5.68,0,0,0-1.74,1L12,8.49H6.29V6.29Zm-12.11-2V2.05H9.91V4.24Zm1.42,8.5v-2.2h7l-.2.52A5.63,5.63,0,0,0,10,12.4l0,.34ZM4.89,17v-2.2h5.28l.09.27a4.94,4.94,0,0,0,.66,1.32l.41.61Zm11,0a4.42,4.42,0,0,1-.78-.07,3.94,3.94,0,0,1-2.77-2.19A3.69,3.69,0,0,1,12,13.05a4.42,4.42,0,0,1,.07-.78,4.18,4.18,0,0,1,.72-1.57,3.8,3.8,0,0,1,.71-.73,3.69,3.69,0,0,1,2.8-.82A3.92,3.92,0,0,1,15.88,17Z"/></g></g></g></svg>