<svg xmlns="http://www.w3.org/2000/svg" viewBox="0 0 21.74 21.74"><defs><style>.cls-1{fill:#e6e8e6;fill-rule:evenodd;}</style></defs><g id="Layer_2" data-name="Layer 2"><g id="Layer_5" data-name="Layer 5"><g id="data_lines"><path class="cls-1" d="M10.87,16.3A1.35,1.35,0,0,0,12.23,15V9.51a1.36,1.36,0,0,0-2.72,0V15A1.35,1.35,0,0,0,10.87,16.3Zm8.15,0A1.35,1.35,0,0,0,20.38,15V1.36a1.36,1.36,0,1,0-2.72,0V15A1.35,1.35,0,0,0,19,16.3Zm-12.23,0A1.35,1.35,0,0,0,8.15,15V13.59a1.36,1.36,0,0,0-2.72,0V15A1.35,1.35,0,0,0,6.79,16.3Zm8.16,0A1.34,1.34,0,0,0,16.3,15V5.43a1.36,1.36,0,0,0-2.71,0V15A1.35,1.35,0,0,0,15,16.3ZM20.38,19H2.72V1.36A1.36,1.36,0,0,0,0,1.36v19a1.36,1.36,0,0,0,1.36,1.36h19a1.36,1.36,0,0,0,0-2.72Z"/></g></g></g></svg>