<svg xmlns="http://www.w3.org/2000/svg" viewBox="0 0 21.68 21.68"><defs><style>.cls-1{fill:#e6e8e6;}</style></defs><g id="Layer_2" data-name="Layer 2"><g id="Layer_5" data-name="Layer 5"><g id="world_1"><path class="cls-1" d="M21.66,10a11.68,11.68,0,0,0-.41-2.18A10.79,10.79,0,0,0,11.21,0h-.7A10.79,10.79,0,0,0,.44,7.83,10.89,10.89,0,0,0,0,10c0,.29,0,.55,0,.82A10.79,10.79,0,0,0,10.48,21.67h.7a10.79,10.79,0,0,0,10.5-10.83C21.68,10.55,21.67,10.28,21.66,10ZM6.05,18.2a8.66,8.66,0,0,1-3.74-5.33l-.16-.65.64.21A13.79,13.79,0,0,0,5.4,13l.3,0,0,.3a18.62,18.62,0,0,0,.89,4.45l.37,1ZM6.61,3.92a11.84,11.84,0,0,0-.46,1.63A20.64,20.64,0,0,0,5.72,8.4c-.06.61-.09,1.25-.11,2.08v.43l-.42-.06c-2.45-.36-2.82-.83-2.94-1l-.1-.12,0-.15a4.18,4.18,0,0,1,.07-.51A8.65,8.65,0,0,1,3.9,5.48a8.31,8.31,0,0,1,2.16-2L7,2.86Zm7.26,9.71c-.34,2.9-1.31,6-3,6-1.41,0-2.6-2.36-3-6l-.05-.44.44,0c.73,0,1.57.06,2.63.06s1.91,0,2.63-.06l.45,0ZM14,11.11l-.35,0c-.88.06-1.84.08-2.83.08s-1.94,0-2.82-.08l-.36,0v-.36a24,24,0,0,1,.16-2.69,15.18,15.18,0,0,1,.58-2.9c.57-2,1.44-3.11,2.44-3.11s1.87,1.11,2.45,3.12a14.88,14.88,0,0,1,.58,2.9A23.41,23.41,0,0,1,14,10.75Zm5.36,1.76a8.66,8.66,0,0,1-3.75,5.34l-.93.6.37-1a18.12,18.12,0,0,0,.9-4.45l0-.3.3,0a14,14,0,0,0,2.61-.55l.63-.21Zm.07-3c-.12.15-.49.62-2.94,1l-.42.06v-.43c0-.83,0-1.47-.11-2.07a22.17,22.17,0,0,0-.43-2.86,11.84,11.84,0,0,0-.46-1.63l-.39-1.06.94.61a8.3,8.3,0,0,1,2.16,2,8.61,8.61,0,0,1,1.67,3.6,5,5,0,0,1,.07.52v.15Z"/></g></g></g></svg>