<svg xmlns="http://www.w3.org/2000/svg" viewBox="0 0 22.04 22.04"><defs><style>.cls-1{fill:#e6e8e6;fill-rule:evenodd;}</style></defs><g id="Layer_2" data-name="Layer 2"><g id="Layer_6" data-name="Layer 6"><g id="settings_2"><path class="cls-1" d="M1.38,5.51h9.9a4.1,4.1,0,0,0,7.75,0h1.64a1.38,1.38,0,0,0,0-2.75H19a4.1,4.1,0,0,0-7.75,0H1.38a1.38,1.38,0,1,0,0,2.75ZM15.15,2.76a1.38,1.38,0,1,1-1.37,1.37A1.38,1.38,0,0,1,15.15,2.76Zm5.52,13.77H19a4.11,4.11,0,0,0-7.75,0H1.38a1.38,1.38,0,0,0,0,2.76h9.9a4.11,4.11,0,0,0,7.75,0h1.64a1.38,1.38,0,0,0,0-2.76Zm-5.52,2.76a1.38,1.38,0,1,1,1.38-1.38A1.38,1.38,0,0,1,15.15,19.29Zm5.52-9.65H10.76A4.11,4.11,0,0,0,3,9.64H1.38a1.38,1.38,0,0,0,0,2.76H3a4.11,4.11,0,0,0,7.77-.05,1,1,0,0,0,.24.05h9.65a1.38,1.38,0,0,0,0-2.76ZM6.89,12.4A1.38,1.38,0,1,1,8.27,11,1.38,1.38,0,0,1,6.89,12.4Z"/></g></g></g></svg>